<svg width="318" height="80" viewBox="0 0 318 80" fill="none" xmlns="http://www.w3.org/2000/svg" role="img" aria-labelledby="snapcash-title">
  <title id="snapcash-title">SnapCash</title>
  <path d="M44 10C34.6 10 27.1 15.4 24.3 23.6C21.6 31.5 25.1 38.1 35.1 42.5L47.1 47.8C53 50.4 55 53.1 54 57.2C52.9 61.9 47.9 65 41.2 65C34.3 65 28 62.2 22.6 57.5L14 68.2C20.3 74.6 29.8 78 40.4 78C52.9 78 62.4 71.8 65.5 62C68.2 53.4 64.6 46.6 54 41.9L42.4 36.8C37.1 34.5 35.2 31.7 36.2 27.9C37.2 24 40.8 21.6 46.2 21.6C51.8 21.6 56.8 23.7 61.2 27.5L69.4 17.2C63.3 12.4 54.4 10 44 10Z" fill="#31C48D"/>
  <path d="M44 0H54L48 80H38L44 0Z" fill="#31C48D"/>
  <text x="85" y="55" fill="#31C48D" font-family="Inter, Avenir Next, Segoe UI, sans-serif" font-size="44" font-weight="500">SnapCash</text>
</svg>
